# Alias Wavefront OBJ File Exported from SketchUp
# with OBJexporter (c) 2010/2011 TIG
# Units = meters

mtllib mtlfix.mtl

g mtlfix_Main-Default_Material
usemtl Default_Material
v 3.200179 0.000000 -3.206519
v 0.152179 0.000000 -0.158519
v 0.152179 0.000000 -3.206519
v 3.200179 0.000000 -0.158519
v 6.957690 0.000000 -3.206519
v 3.909690 0.000000 -0.158519
v 3.909690 0.000000 -3.206519
v 6.957690 0.000000 -0.158519
v 10.715202 0.000000 -3.206519
v 7.667202 0.000000 -0.158519
v 7.667202 0.000000 -3.206519
v 10.715202 0.000000 -0.158519
v 14.472714 0.000000 -3.206519
v 11.424714 0.000000 -0.158519
v 11.424714 0.000000 -3.206519
v 14.472714 0.000000 -0.158519
v 14.472714 0.000000 -6.778394
v 11.424714 0.000000 -3.730394
v 11.424714 0.000000 -6.778394
v 14.472714 0.000000 -3.730394
v 3.200179 0.000000 -6.778394
v 0.152179 0.000000 -3.730394
v 0.152179 0.000000 -6.778394
v 3.200179 0.000000 -3.730394
v 6.957690 0.000000 -6.778394
v 3.909690 0.000000 -3.730394
v 3.909690 0.000000 -6.778394
v 6.957690 0.000000 -3.730394
v 10.715202 0.000000 -6.778394
v 7.667202 0.000000 -3.730394
v 7.667202 0.000000 -6.778394
v 10.715202 0.000000 -3.730394
v 3.200179 0.000000 -10.350269
v 0.152179 0.000000 -7.302269
v 0.152179 0.000000 -10.350269
v 3.200179 0.000000 -7.302269
v 10.715202 0.000000 -10.350269
v 7.667202 0.000000 -7.302269
v 7.667202 0.000000 -10.350269
v 10.715202 0.000000 -7.302269
v 14.472714 0.000000 -10.350269
v 11.424714 0.000000 -7.302269
v 11.424714 0.000000 -10.350269
v 14.472714 0.000000 -7.302269
v 6.957690 0.000000 -10.350269
v 3.909690 0.000000 -7.302269
v 3.909690 0.000000 -10.350269
v 6.957690 0.000000 -7.302269
v 14.472714 0.000000 -13.922144
v 11.424714 0.000000 -10.874144
v 11.424714 0.000000 -13.922144
v 14.472714 0.000000 -10.874144
v 3.200179 0.000000 -13.922144
v 0.152179 0.000000 -10.874144
v 0.152179 0.000000 -13.922144
v 3.200179 0.000000 -10.874144
v 6.957690 0.000000 -13.922144
v 3.909690 0.000000 -10.874144
v 3.909690 0.000000 -13.922144
v 6.957690 0.000000 -10.874144
v 10.715202 0.000000 -13.922144
v 7.667202 0.000000 -10.874144
v 7.667202 0.000000 -13.922144
v 10.715202 0.000000 -10.874144
vn 0.000000 -1.000000 -0.000000
vn 0.000000 -1.000000 -0.000000
vn 0.000000 -1.000000 -0.000000
vn 0.000000 -1.000000 -0.000000
vn 0.000000 -1.000000 -0.000000
vn 0.000000 -1.000000 -0.000000
vn 0.000000 -1.000000 -0.000000
vn 0.000000 -1.000000 -0.000000
vn 0.000000 -1.000000 -0.000000
vn 0.000000 -1.000000 -0.000000
vn 0.000000 -1.000000 -0.000000
vn 0.000000 -1.000000 -0.000000
vn 0.000000 -1.000000 -0.000000
vn 0.000000 -1.000000 -0.000000
vn 0.000000 -1.000000 -0.000000
vn 0.000000 -1.000000 -0.000000
vn 0.000000 -1.000000 -0.000000
vn 0.000000 -1.000000 -0.000000
vn 0.000000 -1.000000 -0.000000
vn 0.000000 -1.000000 -0.000000
vn 0.000000 -1.000000 -0.000000
vn 0.000000 -1.000000 -0.000000
vn 0.000000 -1.000000 -0.000000
vn 0.000000 -1.000000 -0.000000
vn 0.000000 -1.000000 -0.000000
vn 0.000000 -1.000000 -0.000000
vn 0.000000 -1.000000 -0.000000
vn 0.000000 -1.000000 -0.000000
vn 0.000000 -1.000000 -0.000000
vn 0.000000 -1.000000 -0.000000
vn 0.000000 -1.000000 -0.000000
vn 0.000000 -1.000000 -0.000000
vn 0.000000 -1.000000 -0.000000
vn 0.000000 -1.000000 -0.000000
vn 0.000000 -1.000000 -0.000000
vn 0.000000 -1.000000 -0.000000
vn 0.000000 -1.000000 -0.000000
vn 0.000000 -1.000000 -0.000000
vn 0.000000 -1.000000 -0.000000
vn 0.000000 -1.000000 -0.000000
vn 0.000000 -1.000000 -0.000000
vn 0.000000 -1.000000 -0.000000
vn 0.000000 -1.000000 -0.000000
vn 0.000000 -1.000000 -0.000000
vn 0.000000 -1.000000 -0.000000
vn 0.000000 -1.000000 -0.000000
vn 0.000000 -1.000000 -0.000000
vn 0.000000 -1.000000 -0.000000
vn 0.000000 -1.000000 -0.000000
vn 0.000000 -1.000000 -0.000000
vn 0.000000 -1.000000 -0.000000
vn 0.000000 -1.000000 -0.000000
vn 0.000000 -1.000000 -0.000000
vn 0.000000 -1.000000 -0.000000
vn 0.000000 -1.000000 -0.000000
vn 0.000000 -1.000000 -0.000000
vn 0.000000 -1.000000 -0.000000
vn 0.000000 -1.000000 -0.000000
vn 0.000000 -1.000000 -0.000000
vn 0.000000 -1.000000 -0.000000
vn 0.000000 -1.000000 -0.000000
vn 0.000000 -1.000000 -0.000000
vn 0.000000 -1.000000 -0.000000
vn 0.000000 -1.000000 -0.000000
vt -125.991287 126.240924
vt -5.991287 6.240924
vt -5.991287 126.240924
vt -125.991287 6.240924
vt -273.924823 126.240924
vt -153.924823 6.240924
vt -153.924823 126.240924
vt -273.924823 6.240924
vt -421.858358 126.240924
vt -301.858358 6.240924
vt -301.858358 126.240924
vt -421.858358 6.240924
vt -569.791893 126.240924
vt -449.791893 6.240924
vt -449.791893 126.240924
vt -569.791893 6.240924
vt -569.791893 266.865924
vt -449.791893 146.865924
vt -449.791893 266.865924
vt -569.791893 146.865924
vt -125.991287 266.865924
vt -5.991287 146.865924
vt -5.991287 266.865924
vt -125.991287 146.865924
vt -273.924823 266.865924
vt -153.924823 146.865924
vt -153.924823 266.865924
vt -273.924823 146.865924
vt -421.858358 266.865924
vt -301.858358 146.865924
vt -301.858358 266.865924
vt -421.858358 146.865924
vt -125.991287 407.490924
vt -5.991287 287.490924
vt -5.991287 407.490924
vt -125.991287 287.490924
vt -421.858358 407.490924
vt -301.858358 287.490924
vt -301.858358 407.490924
vt -421.858358 287.490924
vt -569.791893 407.490924
vt -449.791893 287.490924
vt -449.791893 407.490924
vt -569.791893 287.490924
vt -273.924823 407.490924
vt -153.924823 287.490924
vt -153.924823 407.490924
vt -273.924823 287.490924
vt -569.791893 548.115924
vt -449.791893 428.115924
vt -449.791893 548.115924
vt -569.791893 428.115924
vt -125.991287 548.115924
vt -5.991287 428.115924
vt -5.991287 548.115924
vt -125.991287 428.115924
vt -273.924823 548.115924
vt -153.924823 428.115924
vt -153.924823 548.115924
vt -273.924823 428.115924
vt -421.858358 548.115924
vt -301.858358 428.115924
vt -301.858358 548.115924
vt -421.858358 428.115924
f 1/1/1 2/2/2 3/3/3
f 2/2/2 1/1/1 4/4/4
f 5/5/5 6/6/6 7/7/7
f 6/6/6 5/5/5 8/8/8
f 9/9/9 10/10/10 11/11/11
f 10/10/10 9/9/9 12/12/12
f 13/13/13 14/14/14 15/15/15
f 14/14/14 13/13/13 16/16/16
f 17/17/17 18/18/18 19/19/19
f 18/18/18 17/17/17 20/20/20
f 21/21/21 22/22/22 23/23/23
f 22/22/22 21/21/21 24/24/24
f 25/25/25 26/26/26 27/27/27
f 26/26/26 25/25/25 28/28/28
f 29/29/29 30/30/30 31/31/31
f 30/30/30 29/29/29 32/32/32
f 33/33/33 34/34/34 35/35/35
f 34/34/34 33/33/33 36/36/36
f 37/37/37 38/38/38 39/39/39
f 38/38/38 37/37/37 40/40/40
f 41/41/41 42/42/42 43/43/43
f 42/42/42 41/41/41 44/44/44
f 45/45/45 46/46/46 47/47/47
f 46/46/46 45/45/45 48/48/48
f 49/49/49 50/50/50 51/51/51
f 50/50/50 49/49/49 52/52/52
f 53/53/53 54/54/54 55/55/55
f 54/54/54 53/53/53 56/56/56
f 57/57/57 58/58/58 59/59/59
f 58/58/58 57/57/57 60/60/60
f 61/61/61 62/62/62 63/63/63
f 62/62/62 61/61/61 64/64/64

